<svg xmlns="http://www.w3.org/2000/svg" width="188" height="48" viewBox="0 0 188 48" fill="none">
  <path d="M70.449 21.8851H80.9899C81.0932 21.8851 81.19 21.8448 81.2635 21.7717C81.3362 21.6989 81.3761 21.6014 81.3761 21.4985V18.271C81.3761 18.1692 81.3358 18.0694 81.2635 17.9978C81.1911 17.925 81.0913 17.8844 80.9899 17.8844H74.4578V5.26907C74.4578 5.16768 74.4168 5.06746 74.3444 4.9955C74.272 4.92355 74.1722 4.88211 74.0708 4.88211H70.449C70.3476 4.88211 70.2478 4.92313 70.1754 4.9955C70.1031 5.06788 70.062 5.16768 70.062 5.26907V21.4981C70.062 21.6003 70.1031 21.6997 70.1754 21.7713C70.2478 21.8437 70.3472 21.8851 70.449 21.8851ZM87.3707 21.6509L88.7789 18.3793H95.0715L96.4803 21.6509C96.5415 21.793 96.6819 21.8847 96.8364 21.8847H100.69C100.821 21.8847 100.942 21.8196 101.013 21.7105C101.086 21.601 101.097 21.4644 101.045 21.3441L94.0341 5.11616C93.9725 4.97455 93.8328 4.88244 93.6792 4.88244H90.1731C90.0195 4.88244 89.879 4.97455 89.8179 5.11616L82.8055 21.3441C82.7541 21.4648 82.7661 21.6018 82.838 21.7105C82.9096 21.8196 83.0307 21.8847 83.1615 21.8847H87.0151C87.1688 21.885 87.3096 21.793 87.3707 21.6509ZM91.9348 11.076L93.37 14.4243H90.483L91.9348 11.076ZM108.625 22.0476H108.644C110.742 22.048 112.519 21.3778 113.886 20.0459C115.278 18.6985 115.957 16.7665 115.955 14.3473V5.26982C115.955 5.16725 115.913 5.06746 115.841 4.99546C115.769 4.92308 115.669 4.88207 115.568 4.88207H111.946C111.843 4.88207 111.744 4.92308 111.672 4.99546C111.6 5.06741 111.559 5.16725 111.559 5.26982V14.2312C111.558 15.4753 111.275 16.4043 110.748 17.066C110.216 17.7277 109.554 18.04 108.626 18.0462C107.698 18.0396 107.03 17.7269 106.489 17.0645C105.956 16.4028 105.67 15.4745 105.67 14.2312V5.26982C105.67 5.16725 105.629 5.06746 105.556 4.99546C105.484 4.92308 105.384 4.88207 105.283 4.88207H101.661C101.559 4.88207 101.459 4.92308 101.387 4.99546C101.315 5.06741 101.274 5.16725 101.274 5.26982V14.3473C101.271 16.7526 101.955 18.6804 103.353 20.0343C104.731 21.3774 106.518 22.0515 108.625 22.0476ZM123.319 21.7717C123.391 21.6993 123.432 21.6006 123.432 21.4985V12.4776L130.469 21.7326C130.542 21.8294 130.655 21.8851 130.777 21.8851H134.398C134.501 21.8851 134.6 21.8441 134.672 21.7717C134.744 21.6993 134.785 21.6006 134.785 21.4985V5.26902C134.785 5.16763 134.744 5.06741 134.672 4.99546C134.6 4.92308 134.501 4.88207 134.398 4.88207H130.777C130.675 4.88207 130.575 4.92308 130.503 4.99546C130.431 5.06783 130.39 5.16763 130.39 5.26902V14.5709L123.121 5.03413C123.048 4.93893 122.933 4.88169 122.813 4.88169H119.423C119.321 4.88169 119.222 4.92271 119.15 4.99508C119.078 5.06746 119.036 5.16725 119.036 5.26864V21.4977C119.036 21.5998 119.078 21.6993 119.15 21.7709C119.223 21.8433 119.321 21.8843 119.423 21.8843H123.046C123.147 21.8851 123.247 21.8436 123.319 21.7717ZM146.174 8.74424C147.765 8.75005 149.051 9.38811 150.144 10.7355C150.216 10.8253 150.322 10.8775 150.437 10.8798C150.552 10.8825 150.66 10.8349 150.735 10.749L152.988 8.19439C153.116 8.04852 153.116 7.82872 152.987 7.68285C151.133 5.58018 148.772 4.50599 146.011 4.511C143.54 4.50674 141.406 5.35766 139.693 7.03508C137.972 8.71058 137.1 10.8427 137.104 13.3373C137.1 15.8297 137.954 17.9467 139.646 19.5928C141.334 21.2451 143.513 22.0739 146.092 22.0708H146.106C148.71 22.0708 151.003 20.9664 152.894 18.8293C153.029 18.6772 153.024 18.4485 152.882 18.3027L150.56 15.9117C150.484 15.8324 150.375 15.7894 150.264 15.7941C150.155 15.7999 150.05 15.8517 149.981 15.9384C148.908 17.2656 147.594 17.9002 145.918 17.9072C144.709 17.9029 143.723 17.4955 142.872 16.6504C142.038 15.813 141.619 14.7238 141.616 13.2905C141.62 11.8611 142.059 10.7931 142.941 9.97663C143.843 9.15088 144.895 8.74729 146.174 8.74419L146.174 8.74424ZM155.272 21.8851H158.893C158.997 21.8851 159.094 21.8448 159.168 21.7717C159.241 21.6989 159.28 21.6014 159.28 21.4985V15.5004H164.961V21.4985C164.961 21.6006 165.002 21.6997 165.075 21.7717C165.147 21.8436 165.246 21.8851 165.348 21.8851H168.97C169.072 21.8851 169.171 21.8441 169.244 21.7717C169.316 21.6993 169.357 21.6006 169.357 21.4985V5.26902C169.357 5.16763 169.316 5.06741 169.244 4.99546C169.171 4.92308 169.072 4.88207 168.97 4.88207H165.348C165.246 4.88207 165.147 4.92308 165.075 4.99546C165.003 5.06783 164.961 5.16763 164.961 5.26902V11.6618H159.28L159.281 5.26902C159.281 5.16763 159.239 5.06741 159.168 4.99546C159.095 4.92308 158.996 4.88207 158.893 4.88207H155.272C155.17 4.88207 155.07 4.92308 154.998 4.99546C154.926 5.06783 154.885 5.16763 154.885 5.26902V21.4981C154.885 21.6002 154.926 21.6997 154.999 21.7713C155.07 21.8436 155.17 21.885 155.272 21.885L155.272 21.8851ZM82.3048 26.1647H69.4894C69.3872 26.1647 69.2881 26.2057 69.2154 26.2781C69.1435 26.3501 69.1021 26.4495 69.1021 26.5517V29.686C69.1021 29.7885 69.1434 29.888 69.2154 29.9599C69.2882 30.0319 69.3869 30.0733 69.4894 30.0733H73.699V42.7807C73.699 42.8821 73.7404 42.982 73.8124 43.0543C73.8851 43.1267 73.9838 43.1677 74.0863 43.1677H77.7078C77.8099 43.1677 77.9098 43.1267 77.9817 43.0543C78.0537 42.9815 78.0951 42.8821 78.0951 42.7807V30.0733H82.3047C82.4069 30.0733 82.5067 30.0319 82.5787 29.9599C82.6506 29.8879 82.692 29.7885 82.692 29.686V26.5517C82.692 26.4495 82.6507 26.3501 82.5787 26.2781C82.5067 26.2062 82.4069 26.1647 82.3048 26.1647ZM95.2897 37.1487C97.2004 36.2622 98.1879 34.4369 98.1682 31.938C98.172 29.9832 97.6013 28.4679 96.4075 27.5248C95.2091 26.5853 93.3332 26.1682 90.7701 26.1647H84.6176C84.5154 26.1647 84.4156 26.2057 84.3436 26.2781C84.2709 26.3501 84.2303 26.4495 84.2303 26.5517V42.7804C84.2303 42.8818 84.2709 42.9816 84.3436 43.0539C84.4156 43.1263 84.5151 43.1673 84.6176 43.1673H88.2391C88.342 43.1673 88.4395 43.127 88.513 43.0532C88.5857 42.9804 88.6256 42.8833 88.6256 42.7804V37.9899H90.5441L94.0266 43.0009C94.0994 43.1046 94.2185 43.1677 94.3455 43.1677H98.8028C98.9471 43.1677 99.0806 43.0864 99.1468 42.958C99.213 42.8295 99.2021 42.6747 99.1189 42.5567L95.2897 37.1487ZM93.158 33.5764C92.8508 33.8666 92.0853 34.0875 90.8858 34.0813H88.6256V30.0497H90.9551C92.0803 30.0439 92.8353 30.2219 93.1715 30.4669C93.4907 30.689 93.7001 31.1328 93.7032 31.9489C93.7013 32.7642 93.4969 33.2738 93.158 33.5764ZM111.025 26.3981C110.963 26.2568 110.823 26.1647 110.669 26.1647H107.163C107.009 26.1647 106.868 26.2564 106.807 26.3981L99.7961 42.6264C99.7442 42.7463 99.7558 42.8833 99.8278 42.9928C99.9002 43.1019 100.021 43.1673 100.151 43.1673H104.005C104.159 43.1673 104.301 43.0741 104.361 42.9328L105.769 39.6608H112.063L113.471 42.9328C113.532 43.0741 113.672 43.1673 113.827 43.1673H117.681C117.812 43.1673 117.932 43.1019 118.004 42.9928C118.076 42.8833 118.088 42.7459 118.036 42.6264L111.025 26.3981ZM107.474 35.7061L108.926 32.3586L110.36 35.7061H107.474ZM123.262 26.1647H119.64C119.538 26.1647 119.438 26.2057 119.366 26.2781C119.294 26.3501 119.253 26.4495 119.253 26.5517V42.7804C119.253 42.8818 119.294 42.9816 119.367 43.0539C119.439 43.1263 119.538 43.1673 119.64 43.1673H123.262C123.364 43.1673 123.464 43.1263 123.535 43.0539C123.608 42.9812 123.648 42.8818 123.648 42.7804V26.5517C123.648 26.4495 123.608 26.3501 123.535 26.2781C123.463 26.2062 123.364 26.1647 123.262 26.1647ZM142.6 26.1647H138.979C138.876 26.1647 138.777 26.2057 138.705 26.2781C138.633 26.3501 138.591 26.4495 138.591 26.5517V35.8532L131.323 26.3168C131.25 26.2212 131.135 26.1643 131.015 26.1643H127.626C127.523 26.1643 127.424 26.2054 127.352 26.2777C127.279 26.3497 127.238 26.4492 127.238 26.5513V42.78C127.238 42.8814 127.279 42.9812 127.352 43.0536C127.424 43.1259 127.523 43.1669 127.626 43.1669H131.247C131.349 43.1669 131.449 43.1259 131.521 43.0536C131.593 42.9808 131.634 42.8814 131.634 42.78V33.759L138.67 43.0145C138.743 43.1108 138.857 43.1677 138.979 43.1677H142.6C142.702 43.1677 142.802 43.1267 142.874 43.0543C142.946 42.9816 142.987 42.8822 142.987 42.7808V26.5521C142.987 26.45 142.946 26.3505 142.874 26.2785C142.802 26.2062 142.702 26.1647 142.6 26.1647ZM150.187 26.1647H146.566C146.464 26.1647 146.364 26.2057 146.292 26.2781C146.22 26.3501 146.178 26.4495 146.178 26.5517V42.7804C146.178 42.8818 146.22 42.9816 146.292 43.0539C146.364 43.1263 146.464 43.1673 146.566 43.1673H150.187C150.289 43.1673 150.389 43.1263 150.461 43.0539C150.533 42.9812 150.574 42.8818 150.574 42.7804V26.5517C150.574 26.4495 150.533 26.3501 150.461 26.2781C150.388 26.2062 150.289 26.1647 150.187 26.1647ZM169.139 26.1647H165.518C165.416 26.1647 165.316 26.2057 165.243 26.2781C165.171 26.3501 165.131 26.4495 165.131 26.5517V35.8532L157.862 26.3168C157.788 26.2212 157.674 26.1643 157.554 26.1643H154.164C154.062 26.1643 153.963 26.2054 153.891 26.2777C153.819 26.3497 153.777 26.4492 153.777 26.5513V42.78C153.777 42.8814 153.819 42.9812 153.891 43.0536C153.963 43.1259 154.062 43.1669 154.164 43.1669H157.786C157.888 43.1669 157.987 43.1259 158.06 43.0536C158.132 42.9808 158.173 42.8814 158.173 42.78V33.759L165.209 43.0145C165.282 43.1108 165.395 43.1677 165.518 43.1677H169.139C169.241 43.1677 169.341 43.1267 169.413 43.0543C169.485 42.9816 169.526 42.8822 169.526 42.7808V26.5521C169.526 26.45 169.485 26.3505 169.413 26.2785C169.341 26.2062 169.241 26.1648 169.139 26.1648L169.139 26.1647ZM187.57 34.2411C187.498 34.1692 187.398 34.1278 187.296 34.1278H183.651C183.55 34.1278 183.45 34.1691 183.377 34.2411C183.305 34.3131 183.264 34.4126 183.264 34.5151V38.7421C182.533 39.1113 181.623 39.3051 180.517 39.3051C179.359 39.3013 178.4 38.8942 177.554 38.0394C176.728 37.1955 176.311 36.0896 176.308 34.6304C176.311 33.1751 176.744 32.0641 177.609 31.2028C178.488 30.336 179.529 29.9135 180.819 29.9104C181.487 29.9104 182.098 30.0223 182.663 30.2432C183.215 30.4595 183.853 30.8704 184.558 31.4861C184.641 31.5588 184.75 31.5917 184.86 31.5782C184.969 31.5646 185.068 31.5054 185.129 31.4149L187.01 28.6981C187.121 28.5375 187.095 28.3189 186.95 28.1896C185.168 26.5965 183.035 25.7898 180.621 25.7932C178.202 25.789 176.096 26.6414 174.385 28.3173C172.663 29.9928 171.791 32.1245 171.795 34.6192C171.791 37.1115 172.646 39.2285 174.337 40.8742C176.022 42.523 178.141 43.3561 180.61 43.353H180.628C183.546 43.353 185.902 42.4128 187.584 40.531C187.648 40.4586 187.683 40.3681 187.683 40.2721V34.5151C187.683 34.4129 187.643 34.3138 187.57 34.2411Z" fill="#0073AF" style="fill:#0073AF;fill:color(display-p3 0.0000 0.4510 0.6863);fill-opacity:1;"/>
  <path d="M21.8631 45.4434C17.9627 45.4442 14.4259 44.6095 11.2893 42.9379C11.1458 42.8605 11.0429 42.7285 11.0042 42.5703C10.9655 42.412 10.996 42.2453 11.0905 42.111L14.0607 37.8201C14.222 37.5864 14.5281 37.507 14.7831 37.6339C16.8924 38.6845 19.2412 39.2169 21.8612 39.2169C26.262 39.2119 29.9012 37.7411 32.9132 34.762C35.1336 32.5633 36.5154 30.0331 37.0938 27.1526H0.714342C0.424138 27.1526 0.181138 26.9348 0.149779 26.645C0.0526541 25.7631 1.34897e-05 24.8592 1.34897e-05 23.9332C-0.00617401 17.848 2.11623 12.6838 6.32045 8.58948C10.5166 4.48239 15.7407 2.41412 21.8631 2.41993C27.3222 2.41647 32.0631 4.06407 36.0042 7.33304C36.2305 7.52265 36.2762 7.85232 36.1094 8.09532L33.1094 12.4249C33.0173 12.5584 32.8698 12.6482 32.7092 12.6683C32.5479 12.6849 32.383 12.635 32.2639 12.5255C29.3788 9.93948 25.9512 8.65637 21.8611 8.65328C17.4615 8.65792 13.8218 10.1392 10.8106 13.1376C8.61001 15.3297 7.23826 17.8309 6.65087 20.6766L43.0072 20.6754C43.2958 20.6754 43.5377 20.8913 43.5714 21.1792C43.6735 22.0765 43.7253 22.9909 43.7253 23.9327C43.7315 30.0191 41.6095 35.1818 37.4049 39.2792C33.2108 43.3809 27.9993 45.4433 21.8901 45.4433C21.8797 45.4433 21.8712 45.4433 21.863 45.4433L21.8631 45.4434Z" fill="#ABCFD4" style="fill:#ABCFD4;fill:color(display-p3 0.6706 0.8118 0.8314);fill-opacity:1;"/>
  <path d="M21.6898 36.8306C18.0653 36.8356 14.9526 35.6105 12.4793 33.1886C9.99311 30.7721 8.73939 27.6641 8.74403 24.002C8.73939 20.3388 10.019 17.2072 12.547 14.7458C15.0614 12.2844 18.1555 11.0315 21.7073 11.0369C25.2544 11.0334 28.3876 12.2175 31.0037 14.5597C31.2169 14.7469 31.2545 15.0705 31.0935 15.3057L28.3299 19.2964C28.2367 19.4287 28.095 19.5146 27.934 19.5351C27.7727 19.5544 27.6129 19.5076 27.4902 19.4C26.4551 18.495 25.5168 17.8913 24.7053 17.5744C23.8772 17.249 22.9815 17.0838 21.9994 17.0838C20.1025 17.0896 18.5745 17.711 17.2832 18.9837C16.0125 20.2486 15.3768 21.8812 15.3706 24.0175C15.3768 26.1624 15.9901 27.7864 17.2036 29.0262C18.4457 30.2787 19.8546 30.8766 21.5548 30.8828C23.1785 30.8828 24.5181 30.6007 25.5911 30.0562V23.848C25.5911 23.6982 25.6518 23.5527 25.7575 23.4456C25.8647 23.3404 26.0106 23.2807 26.1603 23.2807H31.5134C31.6654 23.2807 31.8094 23.3396 31.9146 23.4456C32.0234 23.5559 32.0814 23.6975 32.0814 23.848V32.3056C32.0814 32.4472 32.0307 32.5784 31.9359 32.6848C29.464 35.4469 26.0032 36.8306 21.7185 36.8306C21.7084 36.8306 21.6999 36.8306 21.6898 36.8306Z" fill="#0073AF" style="fill:#0073AF;fill:color(display-p3 0.0000 0.4510 0.6863);fill-opacity:1;"/>
  <path d="M56.8495 0.113391C56.7772 0.0414375 56.6774 0 56.576 0H56.0497C55.9476 0 55.8481 0.0413906 55.7758 0.113391C55.703 0.185344 55.6616 0.284813 55.6616 0.386953V47.613C55.6616 47.7144 55.703 47.8143 55.7758 47.8866C55.8477 47.959 55.9476 48 56.0497 48H56.576C56.6774 48 56.7772 47.959 56.8495 47.8866C56.9215 47.8139 56.9629 47.7144 56.9629 47.613V0.386953C56.9629 0.284813 56.9219 0.185344 56.8495 0.113391Z" fill="#0073AF" style="fill:#0073AF;fill:color(display-p3 0.0000 0.4510 0.6863);fill-opacity:1;"/>
</svg>